<svg xmlns="http://www.w3.org/2000/svg" width="16" height="58" viewBox="0 0 16 58">
  <g fill="none" fill-rule="evenodd">
    <path fill="#6CC16F" fill-rule="nonzero" d="M7.60561697,9.66572421 L7.6303494,12.6656223 C7.63262596,12.9417553 7.85832149,13.1637598 8.13445448,13.1615006 C8.41058747,13.1592066 8.63259197,12.9335111 8.63031541,12.6573781 L8.60558298,9.65748007 C8.60330643,9.38134708 8.37761089,9.15934258 8.1014779,9.16160178 C7.82534491,9.16389569 7.60334041,9.38959122 7.60561697,9.66572421 Z M7.65508183,15.6655203 L7.67981426,18.6654184 C7.68209082,18.9415514 7.90778635,19.1635559 8.18391934,19.1612967 C8.46005233,19.1590027 8.68205683,18.9333072 8.67978028,18.6571742 L8.65504785,15.6572762 C8.65277129,15.3811432 8.42707576,15.1591387 8.15094277,15.1613979 C7.87480977,15.1636918 7.65280527,15.3893873 7.65508183,15.6655203 Z M7.70454669,21.6653164 L7.72927912,24.6652145 C7.73155568,24.9413475 7.95725121,25.163352 8.2333842,25.1610927 C8.50951719,25.1587988 8.7315217,24.9331033 8.72924514,24.6569703 L8.70451271,21.6570723 C8.70223615,21.3809393 8.47654062,21.1589348 8.20040763,21.161194 C7.92427464,21.1634879 7.70227013,21.3891834 7.70454669,21.6653164 Z M7.75401155,27.6651125 L7.77874398,30.6650106 C7.78102054,30.9411435 8.00671607,31.1631481 8.28284906,31.1608888 C8.55898205,31.1585949 8.78098656,30.9328994 8.77871,30.6567664 L8.75397757,27.6568684 C8.75170101,27.3807354 8.52600548,27.1587309 8.24987249,27.1609901 C7.9737395,27.163284 7.75173499,27.3889795 7.75401155,27.6651125 Z M7.80347641,33.6649086 L7.82820884,36.6648067 C7.8304854,36.9409396 8.05618093,37.1629442 8.33231392,37.1606849 C8.60844692,37.158391 8.83045142,36.9326955 8.82817486,36.6565625 L8.80344243,33.6566645 C8.80116587,33.3805315 8.57547034,33.158527 8.29933735,33.1607862 C8.02320436,33.1630801 7.80119986,33.3887756 7.80347641,33.6649086 Z M7.85294128,39.6647047 L7.87767371,42.6646028 C7.87995026,42.9407357 8.1056458,43.1627403 8.38177879,43.160481 C8.65791178,43.1581871 8.87991628,42.9324916 8.87763972,42.6563586 L8.85290729,39.6564606 C8.85063073,39.3803276 8.6249352,39.1583231 8.34880221,39.1605823 C8.07266922,39.1628762 7.85066472,39.3885717 7.85294128,39.6647047 Z M7.90240614,45.6645008 L7.92713857,48.6643989 C7.92941512,48.9405318 8.15511066,49.1625363 8.43124365,49.1602771 C8.70737664,49.1579832 8.92938114,48.9322877 8.92710458,48.6561547 L8.90237215,45.6562567 C8.9000956,45.3801237 8.67440006,45.1581192 8.39826707,45.1603784 C8.12213408,45.1626723 7.90012958,45.3883678 7.90240614,45.6645008 Z M7.951871,51.6642969 L7.97660343,54.664195 C7.97887999,54.9403279 8.20457552,55.1623324 8.48070851,55.1600732 C8.7568415,55.1577793 8.978846,54.9320838 8.97656945,54.6559508 L8.95183701,51.6560528 C8.94956046,51.3799198 8.72386493,51.1579153 8.44773193,51.1601745 C8.17159894,51.1624684 7.94959444,51.3881639 7.951871,51.6642969 Z"/>
    <circle cx="8" cy="8" r="8" fill="#ABEAAE"/>
    <path fill="#6CC16F" fill-rule="nonzero" d="M10.580277,5.21094829 C10.8835099,4.92877336 11.3580767,4.9458442 11.6402517,5.24907709 C11.8967743,5.52474334 11.9059864,5.94200788 11.677718,6.22759813 L11.6021229,6.30905171 L7.40935473,10.2106538 C7.12614951,10.4741919 6.69541338,10.4757652 6.41081343,10.2316052 L6.3301112,10.1510015 L4.55167939,8.08577695 C4.28139162,7.77190214 4.31672588,7.2983448 4.63060069,7.02805703 C4.91594142,6.78234087 5.33325119,6.78920491 5.60983871,7.02830241 L5.68832061,7.10697832 L6.957,8.581 L10.580277,5.21094829 Z"/>
  </g>
</svg>
