<svg xmlns="http://www.w3.org/2000/svg" width="16" height="64" viewBox="0 0 16 64">
  <g fill="none" fill-rule="evenodd">
    <path fill="#C7C7C7" fill-rule="nonzero" d="M7.60561697,17.923321 L7.6303494,20.9232191 C7.63262596,21.199352 7.85832149,21.4213565 8.13445448,21.4190973 C8.41058747,21.4168034 8.63259197,21.1911079 8.63031541,20.9149749 L8.60558298,17.9150769 C8.60330643,17.6389439 8.37761089,17.4169394 8.1014779,17.4191986 C7.82534491,17.4214925 7.60334041,17.647188 7.60561697,17.923321 Z M7.65508183,23.9231171 L7.67981426,26.9230151 C7.68209082,27.1991481 7.90778635,27.4211526 8.18391934,27.4188934 C8.46005233,27.4165995 8.68205683,27.190904 8.67978028,26.914771 L8.65504785,23.914873 C8.65277129,23.63874 8.42707576,23.4167355 8.15094277,23.4189947 C7.87480977,23.4212886 7.65280527,23.6469841 7.65508183,23.9231171 Z M7.70454669,29.9229132 L7.72927912,32.9228112 C7.73155568,33.1989442 7.95725121,33.4209487 8.2333842,33.4186895 C8.50951719,33.4163956 8.7315217,33.1907001 8.72924514,32.9145671 L8.70451271,29.9146691 C8.70223615,29.6385361 8.47654062,29.4165316 8.20040763,29.4187908 C7.92427464,29.4210847 7.70227013,29.6467802 7.70454669,29.9229132 Z M7.75401155,35.9227093 L7.77874398,38.9226073 C7.78102054,39.1987403 8.00671607,39.4207448 8.28284906,39.4184856 C8.55898205,39.4161917 8.78098656,39.1904962 8.77871,38.9143632 L8.75397757,35.9144652 C8.75170101,35.6383322 8.52600548,35.4163277 8.24987249,35.4185869 C7.9737395,35.4208808 7.75173499,35.6465763 7.75401155,35.9227093 Z M7.80347641,41.9225054 L7.82820884,44.9224034 C7.8304854,45.1985364 8.05618093,45.4205409 8.33231392,45.4182817 C8.60844692,45.4159878 8.83045142,45.1902923 8.82817486,44.9141593 L8.80344243,41.9142613 C8.80116587,41.6381283 8.57547034,41.4161238 8.29933735,41.418383 C8.02320436,41.4206769 7.80119986,41.6463724 7.80347641,41.9225054 Z M7.85294128,47.9223015 L7.87767371,50.9221995 C7.87995026,51.1983325 8.1056458,51.420337 8.38177879,51.4180778 C8.65791178,51.4157839 8.87991628,51.1900884 8.87763972,50.9139554 L8.85290729,47.9140574 C8.85063073,47.6379244 8.6249352,47.4159199 8.34880221,47.4181791 C8.07266922,47.420473 7.85066472,47.6461685 7.85294128,47.9223015 Z M7.90240614,53.9220976 L7.92713857,56.9219956 C7.92941512,57.1981286 8.15511066,57.4201331 8.43124365,57.4178739 C8.70737664,57.41558 8.92938114,57.1898845 8.92710458,56.9137515 L8.90237215,53.9138535 C8.9000956,53.6377205 8.67440006,53.415716 8.39826707,53.4179752 C8.12213408,53.4202691 7.90012958,53.6459646 7.90240614,53.9220976 Z M7.951871,59.9218937 L7.97660343,62.9217917 C7.97887999,63.1979247 8.20457552,63.4199292 8.48070851,63.41767 C8.7568415,63.4153761 8.978846,63.1896806 8.97656945,62.9135476 L8.95183701,59.9136495 C8.94956046,59.6375166 8.72386493,59.4155121 8.44773193,59.4177713 C8.17159894,59.4200652 7.94959444,59.6457607 7.951871,59.9218937 Z"/>
    <circle cx="8" cy="8" r="8" fill="#F1F1F1"/>
    <path fill="#C7C7C7" fill-rule="nonzero" d="M10.580277,5.21094829 C10.8835099,4.92877336 11.3580767,4.9458442 11.6402517,5.24907709 C11.8967743,5.52474334 11.9059864,5.94200788 11.677718,6.22759813 L11.6021229,6.30905171 L7.40935473,10.2106538 C7.12614951,10.4741919 6.69541338,10.4757652 6.41081343,10.2316052 L6.3301112,10.1510015 L4.55167939,8.08577695 C4.28139162,7.77190214 4.31672588,7.2983448 4.63060069,7.02805703 C4.91594142,6.78234087 5.33325119,6.78920491 5.60983871,7.02830241 L5.68832061,7.10697832 L6.957,8.581 L10.580277,5.21094829 Z"/>
  </g>
</svg>
