<svg xmlns="http://www.w3.org/2000/svg" xmlns:xlink="http://www.w3.org/1999/xlink" width="362" height="138" viewBox="0 0 362 138">
  <defs>
    <polygon id="plivo-logo-a" points="0 .56 95.523 .56 95.523 75 0 75"/>
  </defs>
  <g fill="none" fill-rule="evenodd">
    <rect width="362" height="138" fill="#FFF" fill-opacity=".01"/>
    <g transform="translate(31 31.44)">
      <mask id="plivo-logo-b" fill="#fff">
        <use xlink:href="#plivo-logo-a"/>
      </mask>
      <path fill="#43A046" d="M47.5953,0.559393181 C39.4863,0.5876 32.0053,3.2566 25.9623,7.7496 C19.9193,12.2436 15.3143,18.5596 12.9563,25.8816 C12.8603,26.1806 12.7143,26.4556 12.5263,26.7006 C12.3393,26.9436 12.1093,27.1556 11.8463,27.3266 C8.1143,29.7536 5.0413,33.1086 2.9613,37.0646 C0.8813,41.0206 -0.2057,45.5776 0.0323,50.4106 C0.3773,57.3966 3.5533,63.5566 8.3903,67.9626 C13.2283,72.3706 19.7293,75.0236 26.7243,74.9997615 L47.8513,74.9997615 L68.9773,74.9997615 C75.9723,74.9756 82.4553,72.2416 87.2623,67.7646 C92.0703,63.2886 95.2023,57.0716 95.4993,50.0816 C95.7043,45.2476 94.5863,40.6986 92.4793,36.7566 C90.3723,32.8156 87.2763,29.4826 83.5273,27.0806 C83.2633,26.9106 83.0323,26.7006 82.8433,26.4576 C82.6543,26.2156 82.5063,25.9416 82.4083,25.6436 C80.0003,18.3376 75.3513,12.0526 69.2783,7.6016 C63.2033,3.1506 55.7043,0.5326 47.5953,0.559393181 M47.6273,9.84645015 C53.6143,9.8266 59.2993,11.8096 63.9163,15.2316 C68.5343,18.6526 72.0853,23.5106 73.8043,29.2406 L74.1773,30.4806 L74.5493,31.7206 C74.6453,32.0426 74.8013,32.3416 75.0053,32.6016 C75.2093,32.8626 75.4623,33.0846 75.7513,33.2556 L76.8673,33.9136 L77.9833,34.5716 C80.6603,36.1506 82.7803,38.3566 84.2013,40.9456 C85.6213,43.5346 86.3433,46.5046 86.2233,49.6136 C86.0513,54.1266 84.0233,58.1286 80.9093,61.0056 C77.7953,63.8836 73.5953,65.6366 69.0793,65.6526 L47.8193,65.7246 L26.5583,65.7977104 C22.0423,65.8136 17.8303,64.0896 14.6973,61.2336 C11.5643,58.3766 9.5083,54.3896 9.3043,49.8776 C9.1643,46.7706 9.8653,43.7936 11.2673,41.1956 C12.6703,38.5966 14.7753,36.3756 17.4423,34.7796 L18.5533,34.1136 L19.6643,33.4486 C19.9533,33.2756 20.2033,33.0506 20.4063,32.7886 C20.6083,32.5286 20.7623,32.2286 20.8563,31.9056 L21.2203,30.6636 L21.5843,29.4196 C23.2643,23.6786 26.7823,18.7956 31.3753,15.3426 C35.9703,11.8896 41.6403,9.8676 47.6273,9.84645015" mask="url(#plivo-logo-b)"/>
    </g>
    <path fill="#43A046" d="M7.966 5.96466175C7.966 6.51166175 7.746 7.00666175 7.389 7.36566175 7.032 7.72566175 6.538 7.94866175 5.992 7.95266175L3.997 7.95966175 2.002 7.96666175C1.455 7.96666175.96 7.74566175.601 7.38966175.241 7.03166175.017 6.53866175.014 5.99166175L.007 3.99666175 1.7408297e-13 2.00166175C1.7408297e-13 1.45566175.22.960661751.577.600661751.934.240661751 1.428.0176617513 1.974.0146617513L3.969.0076617513 5.965.000658371934C6.511-.000338248704 7.006.220661751 7.366.577661751 7.725.934661751 7.949 1.42866175 7.952 1.97466175L7.959 3.96966175 7.966 5.96466175zM19.2536 5.96466175C19.2536 6.51166175 19.0336 7.00666175 18.6766 7.36566175 18.3196 7.72566175 17.8256 7.94866175 17.2796 7.95266175L15.2846 7.95966175 13.2896 7.96666175C12.7426 7.96666175 12.2476 7.74566175 11.8886 7.38966175 11.5286 7.03166175 11.3046 6.53866175 11.3016 5.99166175L11.2946 3.99666175 11.2876 2.00166175C11.2876 1.45566175 11.5076.960661751 11.8646.600661751 12.2216.240661751 12.7156.0176617513 13.2616.0146617513L15.2566.0076617513 17.2526.000658371934C17.7986-.000338248704 18.2936.220661751 18.6526.577661751 19.0126.934661751 19.2366 1.42866175 19.2396 1.97466175L19.2466 3.96966175 19.2536 5.96466175zM30.5412 5.96566175C30.5412 6.51166175 30.3212 7.00666175 29.9642 7.36666175 29.6072 7.72666175 29.1132 7.94966175 28.5672 7.95266175L26.5722 7.95966175 24.5772 7.96667527C24.0302 7.96866175 23.5342 7.74866175 23.1742 7.39166175 22.8142 7.03366175 22.5912 6.53966175 22.5892 5.99266175L22.5822 3.99766175 22.5751865 2.00266175C22.5732 1.45566175 22.7932.959661751 23.1502.600661751 23.5082.239661751 24.0022.0166617513 24.5492.0146617513L26.5442.0076617513 28.5402.000661751296C29.0882-.0133382487 29.5902.195661751 29.9592.545661751 30.3282.896661751 30.5632 1.38666175 30.5782 1.93566175 30.5782 1.94266175 30.5782 1.94766175 30.5782 1.95466175L30.5782 1.97566175 30.5602 3.97066175 30.5412 5.96566175zM7.9708 17.2498618C7.9708 17.7958618 7.7508 18.2908618 7.3938 18.6498618 7.0368 19.0098618 6.5428 19.2328618 5.9968 19.2368618L4.0018 19.2438618 2.0068 19.2508618C1.4598 19.2508618.9648 19.0308618.6058 18.6738618.2458 18.3168618.0218 17.8228618.0188 17.2758618L.0118 15.2818618.0048 13.2868618C.0048 12.7398618.2248 12.2448618.5818 11.8858618.9388 11.5258618 1.4328 11.3028618 1.9788 11.2988618L3.9738 11.2918618 5.9698 11.2848618C6.5158 11.2848618 7.0108 11.5048618 7.3708 11.8618618 7.7298 12.2198618 7.9538 12.7128618 7.9568 13.2598618L7.9638 15.2548618 7.9708 17.2498618zM19.2584 17.2498618C19.2584 17.7958618 19.0384 18.2908618 18.6814 18.6498618 18.3244 19.0098618 17.8304 19.2328618 17.2844 19.2368618L15.2894 19.2438618 13.2944 19.2508618C12.7474 19.2508618 12.2524 19.0308618 11.8934 18.6738618 11.5334 18.3168618 11.3094 17.8228618 11.3064 17.2758618L11.2994 15.2818618 11.2924 13.2868618C11.2924 12.7398618 11.5124 12.2448618 11.8694 11.8858618 12.2264 11.5258618 12.7204 11.3028618 13.2664 11.2988618L15.2614 11.2918618 17.2574 11.2848618C17.8034 11.2848618 18.2984 11.5048618 18.6584 11.8618618 19.0174 12.2198618 19.2414 12.7128618 19.2444 13.2598618L19.2514 15.2548618 19.2584 17.2498618zM30.546 17.2498618C30.546 17.7958618 30.326 18.2908618 29.969 18.6498618 29.612 19.0098618 29.118 19.2328618 28.572 19.2368618L26.577 19.2438618 24.582 19.2508753C24.035 19.2528618 23.539 19.0328618 23.179 18.6758618 22.819 18.3178618 22.596 17.8238618 22.594 17.2758618L22.587 15.2818618 22.5799865 13.2868618C22.578 12.7388618 22.798 12.2428618 23.156 11.8838618 23.513 11.5238618 24.007 11.3008618 24.554 11.2988618L26.549 11.2918618 28.545 11.2848618C29.091 11.2848618 29.586 11.5048618 29.946 11.8618618 30.305 12.2198618 30.529 12.7128618 30.532 13.2598618L30.539 15.2548618 30.546 17.2498618zM7.97571352 28.5300618C7.9777 29.0770618 7.7577 29.5730618 7.4007 29.9330618 7.0427 30.2930618 6.5487 30.5160618 6.0017 30.5180618L4.0067 30.5250618 2.0117 30.5320752C1.4647 30.5340618.9687 30.3130618.6087 29.9560618.2487 29.5990618.0257 29.1040618.0237 28.5570618L.0167 26.5620618.0097 24.5670618C.0097 24.0210618.2297 23.5260618.5867 23.1660618.9437 22.8060618 1.4377 22.5830618 1.9837 22.5800618L3.9787 22.5730618 5.9747 22.5660584C6.5207 22.5650618 7.0157 22.7860618 7.3757 23.1430618 7.7347 23.5000618 7.9587 23.9940618 7.9617 24.5400618L7.9687 26.5350618 7.97571352 28.5300618zM19.2633135 28.5300618C19.2653 29.0770618 19.0453 29.5730618 18.6883 29.9330618 18.3303 30.2930618 17.8363 30.5160618 17.2893 30.5180618L15.2943 30.5250618 13.2993 30.5320752C12.7523 30.5340618 12.2563 30.3130618 11.8963 29.9560618 11.5363 29.5990618 11.3133 29.1040618 11.3113 28.5570618L11.3043 26.5620618 11.2973 24.5670618C11.2973 24.0210618 11.5173 23.5260618 11.8743 23.1660618 12.2313 22.8060618 12.7253 22.5830618 13.2713 22.5800618L15.2663 22.5730618 17.2623 22.5660584C17.8083 22.5650618 18.3033 22.7860618 18.6633 23.1430618 19.0223 23.5000618 19.2463 23.9940618 19.2493 24.5400618L19.2563 26.5350618 19.2633135 28.5300618zM30.5509135 28.5300618C30.5529 29.0770618 30.3329 29.5730618 29.9759 29.9330618 29.6179 30.2930618 29.1239 30.5160618 28.5769 30.5180618L26.5819 30.5250618 24.5869 30.5320752C24.0399 30.5340618 23.5439 30.3130618 23.1839 29.9560618 22.8239 29.5990618 22.6009 29.1040618 22.5989 28.5570618L22.5919 26.5620618 22.5848865 24.5670618C22.5829 24.0200618 22.8029 23.5240618 23.1609 23.1650618 23.5179 22.8040618 24.0119 22.5820618 24.5589 22.5800618L26.5539 22.5730618 28.5499 22.5660584C29.0959 22.5650618 29.5909 22.7860618 29.9509 23.1430618 30.3099 23.5000618 30.5339 23.9940618 30.5369 24.5400618L30.5439 26.5350618 30.5509135 28.5300618z" transform="translate(63.431 57.867)"/>
    <path fill="#444" d="M173.2193 77.3522C174.0243 76.4772 174.6273 75.4422 175.0283 74.2472 175.4283 73.0512 175.6263 71.6952 175.620432 70.1792 175.6153 68.6632 175.4083 67.3082 175.0003 66.1152 174.5913 64.9222 173.9813 63.8912 173.1703 63.0222 172.3573 62.1532 171.4323 61.5012 170.3953 61.0692 169.3573 60.6372 168.2063 60.4222 166.9433 60.4271148 165.6793 60.4312 164.5303 60.6532 163.4953 61.0932 162.4603 61.5332 161.5403 62.1902 160.7353 63.0652 159.9283 63.9392 159.3253 64.9742 158.9253 66.1702 158.5253 67.3662 158.3283 68.7222 158.333207 70.2392 158.3383 71.7542 158.5453 73.1092 158.9533 74.3022 159.3613 75.4952 159.9713 76.5262 160.7843 77.3952 161.5953 78.2642 162.5203 78.9142 163.5573 79.3472 164.5953 79.7802 165.7463 79.9942 167.0103 79.990255 168.2743 79.9852 169.4233 79.7632 170.4573 79.3242 171.4923 78.8842 172.4123 78.2272 173.2193 77.3522M178.4693 51.5482C180.0003 52.4152 181.3753 53.4652 182.5923 54.7002 183.8103 55.9342 184.8703 57.3522 185.7743 58.9542 186.6763 60.5562 187.3553 62.2892 187.8103 64.1512 188.2653 66.0132 188.4963 68.0052 188.503512 70.1292 188.5113 72.2522 188.2933 74.2472 187.8513 76.1122 187.4083 77.9772 186.7413 79.7142 185.8503 81.3222 184.9583 82.9302 183.9073 84.3562 182.6983 85.5982 181.4903 86.8402 180.1223 87.9002 178.5963 88.7782 177.0703 89.6552 175.4583 90.3142 173.7603 90.7562 172.0613 91.1982 170.2773 91.4212 168.4073 91.4282 166.0063 91.4362 163.8633 91.0842 161.9663 90.3722 160.0683 89.6592 158.4163 88.5852 156.9963 87.1502L156.9983 95.4112 157.0003 103.6722C157.0033 104.4152 156.7033 105.0902 156.2183 105.5802 155.7323 106.0682 155.0603 106.3722 154.3163 106.3742L149.8063 106.3902 145.2963 106.40621C144.5523 106.4082 143.8783 106.1092 143.3883 105.6232 142.9003 105.1372 142.5963 104.4652 142.5933 103.7212L142.5243 77.9162 142.455278 52.1132C142.4523 51.3692 142.7523 50.6952 143.2373 50.2062 143.7233 49.7162 144.3953 49.4132 145.1393 49.4102L149.3073 49.3962 153.4763 49.3812C154.2203 49.3782 154.8943 49.6782 155.3843 50.1642 155.8723 50.6492 156.1763 51.3222 156.1793 52.0652L156.1623 52.9252 156.1463 53.7862C157.4803 52.1892 159.1563 50.9892 161.1763 50.1862 163.1953 49.3822 165.5563 48.9762 168.2613 48.9670322 170.1313 48.9602 171.9173 49.1722 173.6183 49.6032 175.3193 50.0332 176.9363 50.6812 178.4693 51.5482M197.7457 35.1677L202.2567 35.1517 206.7667 35.1366777C207.5097 35.1337 208.1837 35.4337 208.6737 35.9187 209.1627 36.4037 209.4667 37.0767 209.4687 37.8197L209.4697 63.2577 209.47071 88.6947C209.4727 89.4387 209.1737 90.1127 208.6877 90.6027 208.2017 91.0907 207.5297 91.3957 206.7857 91.3967L202.2757 91.4127 197.7657 91.4287223C197.0217 91.4317 196.3477 91.1317 195.8577 90.6467 195.3697 90.1597 195.0657 89.4877 195.0627 88.7437L195.061678 63.3077 195.061678 37.8697C195.0587 37.1257 195.3577 36.4517 195.8447 35.9627 196.3297 35.4737 197.0027 35.1697 197.7457 35.1677M282.9459 53.8952L279.2809 62.8602 275.6149 71.8242 271.9489 80.7892 268.2829 89.7522C268.1789 90.0052 268.0409 90.2362 267.8739 90.4392 267.7069 90.6432 267.5109 90.8212 267.2949 90.9662 267.0779 91.1122 266.8409 91.2272 266.5889 91.3052 266.3379 91.3832 266.0719 91.4252 265.7999 91.4262L262.9779 91.4262 260.1579 91.4272 257.3379 91.4272 254.5169 91.4282183C254.2439 91.4292 253.9769 91.3892 253.7249 91.3122 253.4719 91.2362 253.2339 91.1232 253.0159 90.9782 252.7989 90.8332 252.6019 90.6572 252.4329 90.4542 252.2649 90.2502 252.1249 90.0202 252.0199 89.7682L248.3439 80.8082 244.6679 71.8472 240.9919 62.8872 237.3149 53.9262C237.1319 53.4842 237.0739 53.0312 237.1229 52.5982 237.1709 52.1662 237.3239 51.7572 237.5589 51.4022 237.7959 51.0472 238.1139 50.7482 238.4939 50.5372 238.8739 50.3252 239.3139 50.2022 239.7929 50.2002L242.0249 50.1922 244.2579 50.1852 246.4899 50.1772 248.7219 50.1691821C248.9999 50.1682 249.2689 50.2092 249.5249 50.2892 249.7809 50.3682 250.0219 50.4842 250.2409 50.6322 250.4609 50.7812 250.6579 50.9612 250.8259 51.1692 250.9949 51.3762 251.1339 51.6122 251.2349 51.8702L253.5519 57.7082 255.8689 63.5482 258.1849 69.3872 260.5019 75.2272 262.8919 69.3902 265.2839 63.5542 267.6749 57.7172 270.0649 51.8802C270.1689 51.6282 270.3069 51.3962 270.4739 51.1892 270.6419 50.9812 270.8379 50.7992 271.0539 50.6482 271.2709 50.4982 271.5089 50.3782 271.7599 50.2962 272.0119 50.2142 272.2779 50.1702 272.5499 50.1691821L274.5239 50.1722 276.4979 50.1752 278.4709 50.1782 280.4439 50.1822C280.9249 50.1802 281.3659 50.3002 281.7469 50.5092 282.1289 50.7182 282.4489 51.0162 282.6869 51.3712 282.9249 51.7242 283.0819 52.1332 283.1319 52.5652 283.1819 52.9972 283.1279 53.4522 282.9459 53.8952M314.0406 76.8581C314.8466 75.9831 315.4496 74.9421 315.8506 73.7341 316.2496 72.5261 316.4476 71.1511 316.441732 69.6091 316.4366 68.0921 316.2296 66.7411 315.8216 65.5541 315.4126 64.3681 314.8036 63.3461 313.9916 62.4901 313.1796 61.6331 312.2546 60.9931 311.2166 60.5661 310.1786 60.1401 309.0276 59.9281 307.7656 59.9330136 306.5006 59.9371 305.3526 60.1571 304.3166 60.5891 303.2816 61.0231 302.3616 61.6701 301.5566 62.5321 300.7506 63.3941 300.1466 64.4201 299.7466 65.6101 299.3466 66.7981 299.1486 68.1521 299.154468 69.6691 299.1596 71.2101 299.3666 72.5841 299.7746 73.7891 300.1836 74.9951 300.7936 76.0321 301.6056 76.9011 302.4176 77.7701 303.3426 78.4201 304.3796 78.8531 305.4176 79.2861 306.5676 79.5001 307.8316 79.496155 309.0956 79.4911 310.2446 79.2691 311.2786 78.8301 312.3136 78.3901 313.2346 77.7331 314.0406 76.8581M295.9576 88.2561C294.1856 87.3521 292.6046 86.2711 291.2176 85.0121 289.8286 83.7541 288.6326 82.3171 287.6286 80.7031 286.6246 79.0881 285.8696 77.3661 285.3646 75.5361 284.8586 73.7051 284.6036 71.7651 284.596453 69.7181 284.5896 67.6971 284.8326 65.7751 285.3246 63.9541 285.8176 62.1311 286.5606 60.4111 287.5536 58.7901 288.5466 57.1691 289.7286 55.7271 291.1026 54.4651 292.4766 53.2031 294.0386 52.1201 295.7926 51.2161 297.5466 50.3141 299.4176 49.6341 301.4056 49.1781 303.3946 48.7231 305.5016 48.4911 307.7256 48.4838867 309.9486 48.4761 312.0606 48.6931 314.0596 49.1351 316.0576 49.5771 317.9426 50.2441 319.7156 51.1341 321.4866 52.0261 323.0636 53.0941 324.4456 54.3411 325.8276 55.5871 327.0146 57.0111 328.0056 58.6121 328.9966 60.2141 329.7416 61.9271 330.2406 63.7521 330.7396 65.5761 330.9926 67.5111 330.999749 69.5591 331.0066 71.6061 330.7676 73.5461 330.2806 75.3811 329.7946 77.2151 329.0616 78.9431 328.0806 80.5631 327.1006 82.1851 325.9236 83.6291 324.5506 84.8981 323.1776 86.1671 321.6076 87.2581 319.8426 88.1741 318.0756 89.0901 316.1946 89.7791 314.1996 90.2411 312.2046 90.7031 310.0956 90.9371 307.8716 90.9452619 305.6726 90.9521 303.5806 90.7321 301.5946 90.2841 299.6086 89.8361 297.7296 89.1601 295.9576 88.2561M229.7047 47.2565L225.2597 47.2565 220.8127 47.2565C220.0537 47.2565 219.3647 46.9475 218.8667 46.4495 218.3687 45.9515 218.0597 45.2635 218.0597 44.5025L218.0597 41.1955 218.0597 37.8895C218.0597 37.1295 218.3687 36.4415 218.8667 35.9435 219.3647 35.4435 220.0537 35.1365 220.8127 35.1365L225.2597 35.1365 229.7047 35.1365C230.4657 35.1365 231.1537 35.4435 231.6517 35.9435 232.1497 36.4415 232.4587 37.1295 232.4587 37.8895L232.4587 41.1955 232.4587 44.5025C232.4587 45.2635 232.1497 45.9515 231.6517 46.4495 231.1537 46.9475 230.4657 47.2565 229.7047 47.2565M229.7047 91.4284L225.2597 91.4284 220.8127 91.4284C220.0537 91.4284 219.3647 91.1194 218.8667 90.6214 218.3687 90.1234 218.0597 89.4354 218.0597 88.6754L218.0597 70.8154 218.0597 52.9544C218.0597 52.1954 218.3687 51.5064 218.8667 51.0084 219.3647 50.5094 220.0537 50.2014 220.8127 50.2014L225.2597 50.2014 229.7047 50.2014C230.4657 50.2014 231.1537 50.5094 231.6517 51.0084 232.1497 51.5064 232.4587 52.1954 232.4587 52.9544L232.4587 70.8154 232.4587 88.6754C232.4587 89.4354 232.1497 90.1234 231.6517 90.6214 231.1537 91.1194 230.4657 91.4284 229.7047 91.4284"/>
  </g>
</svg>
