<svg xmlns="http://www.w3.org/2000/svg" width="124" height="108" xmlns:v="https://vecta.io/nano"><path fill="#3cd8fb" fill-rule="evenodd" d="M2.797 1.397a1.4 1.4 0 0 1-1.398 1.397A1.4 1.4 0 0 1 0 1.397 1.4 1.4 0 0 1 1.398 0a1.4 1.4 0 0 1 1.398 1.397m18.73 0a1.4 1.4 0 0 1-1.398 1.397 1.4 1.4 0 0 1-1.398-1.397A1.4 1.4 0 0 1 20.13 0a1.4 1.4 0 0 1 1.398 1.397m18.73 0a1.4 1.4 0 0 1-1.398 1.397 1.4 1.4 0 0 1-1.398-1.397A1.4 1.4 0 0 1 38.861 0a1.4 1.4 0 0 1 1.398 1.397m18.73 0a1.4 1.4 0 0 1-1.398 1.397 1.4 1.4 0 0 1-1.398-1.397A1.4 1.4 0 0 1 57.592 0a1.4 1.4 0 0 1 1.398 1.397m18.73 0a1.4 1.4 0 0 1-1.398 1.397 1.4 1.4 0 0 1-1.398-1.397A1.4 1.4 0 0 1 76.324 0a1.4 1.4 0 0 1 1.398 1.397m18.732 0a1.4 1.4 0 0 1-1.398 1.397 1.4 1.4 0 0 1-1.398-1.397A1.4 1.4 0 0 1 95.056 0a1.4 1.4 0 0 1 1.398 1.397m18.73 0a1.4 1.4 0 0 1-1.398 1.397 1.4 1.4 0 0 1-1.398-1.397A1.4 1.4 0 0 1 113.787 0a1.4 1.4 0 0 1 1.398 1.397M11.442 15.786a1.4 1.4 0 0 1-1.398 1.397 1.4 1.4 0 0 1-1.398-1.397 1.4 1.4 0 0 1 1.398-1.397c.773 0 1.398.625 1.398 1.397m18.73 0a1.4 1.4 0 0 1-1.398 1.397 1.4 1.4 0 0 1-1.398-1.397 1.4 1.4 0 0 1 1.398-1.397c.773 0 1.398.625 1.398 1.397m18.732 0a1.4 1.4 0 0 1-1.398 1.397 1.4 1.4 0 0 1-1.398-1.397c0-.772.626-1.397 1.398-1.397a1.4 1.4 0 0 1 1.398 1.397m18.73 0a1.4 1.4 0 0 1-1.398 1.397 1.4 1.4 0 0 1-1.398-1.397c0-.772.626-1.397 1.398-1.397a1.4 1.4 0 0 1 1.398 1.397m18.73 0a1.4 1.4 0 0 1-1.398 1.397 1.4 1.4 0 0 1-1.398-1.397c0-.772.626-1.397 1.398-1.397a1.4 1.4 0 0 1 1.398 1.397m18.73 0a1.4 1.4 0 0 1-1.398 1.397 1.4 1.4 0 0 1-1.398-1.397 1.4 1.4 0 0 1 1.398-1.397 1.4 1.4 0 0 1 1.398 1.397m18.73 0a1.4 1.4 0 0 1-1.398 1.397 1.4 1.4 0 0 1-1.398-1.397 1.4 1.4 0 0 1 1.398-1.397 1.4 1.4 0 0 1 1.398 1.397M2.797 31.613a1.4 1.4 0 0 1-1.398 1.397A1.4 1.4 0 0 1 0 31.613a1.4 1.4 0 0 1 1.398-1.397 1.4 1.4 0 0 1 1.398 1.397m18.73 0a1.4 1.4 0 0 1-1.398 1.397 1.4 1.4 0 0 1-1.398-1.397 1.4 1.4 0 0 1 1.398-1.397 1.4 1.4 0 0 1 1.398 1.397m18.73 0a1.4 1.4 0 0 1-1.398 1.397 1.4 1.4 0 0 1-1.398-1.397 1.4 1.4 0 0 1 1.398-1.397c.773 0 1.398.625 1.398 1.397m18.73 0a1.4 1.4 0 0 1-1.398 1.397 1.4 1.4 0 0 1-1.398-1.397 1.4 1.4 0 0 1 1.398-1.397c.773 0 1.398.625 1.398 1.397m18.73 0a1.4 1.4 0 0 1-1.398 1.397 1.4 1.4 0 0 1-1.398-1.397 1.4 1.4 0 0 1 1.398-1.397c.773 0 1.398.625 1.398 1.397m18.732 0a1.4 1.4 0 0 1-1.398 1.397 1.4 1.4 0 0 1-1.398-1.397c0-.772.626-1.397 1.398-1.397a1.4 1.4 0 0 1 1.398 1.397m18.73 0a1.4 1.4 0 0 1-1.398 1.397 1.4 1.4 0 0 1-1.398-1.397c0-.772.626-1.397 1.398-1.397a1.4 1.4 0 0 1 1.398 1.397M11.442 46.002a1.4 1.4 0 0 1-1.398 1.397 1.4 1.4 0 0 1-1.398-1.397 1.4 1.4 0 0 1 1.398-1.397 1.4 1.4 0 0 1 1.398 1.397m18.73 0a1.4 1.4 0 0 1-1.398 1.397 1.4 1.4 0 0 1-1.398-1.397 1.4 1.4 0 0 1 1.398-1.397 1.4 1.4 0 0 1 1.398 1.397m18.732 0a1.4 1.4 0 0 1-1.398 1.397 1.4 1.4 0 0 1-1.398-1.397 1.4 1.4 0 0 1 1.398-1.397 1.4 1.4 0 0 1 1.398 1.397m18.73 0a1.4 1.4 0 0 1-1.398 1.397 1.4 1.4 0 0 1-1.398-1.397 1.4 1.4 0 0 1 1.398-1.397 1.4 1.4 0 0 1 1.398 1.397m18.73 0a1.4 1.4 0 0 1-1.398 1.397 1.4 1.4 0 0 1-1.398-1.397 1.4 1.4 0 0 1 1.398-1.397 1.4 1.4 0 0 1 1.398 1.397m18.73 0a1.4 1.4 0 0 1-1.398 1.397 1.4 1.4 0 0 1-1.398-1.397 1.4 1.4 0 0 1 1.398-1.397 1.4 1.4 0 0 1 1.398 1.397m18.73 0a1.4 1.4 0 0 1-1.398 1.397 1.4 1.4 0 0 1-1.398-1.397 1.4 1.4 0 0 1 1.398-1.397 1.4 1.4 0 0 1 1.398 1.397M2.797 61.83a1.4 1.4 0 0 1-1.398 1.397A1.4 1.4 0 0 1 0 61.829a1.4 1.4 0 0 1 1.398-1.397 1.4 1.4 0 0 1 1.398 1.397m18.73 0a1.4 1.4 0 0 1-1.398 1.397 1.4 1.4 0 0 1-1.398-1.397 1.4 1.4 0 0 1 1.398-1.397 1.4 1.4 0 0 1 1.398 1.397m18.73 0a1.4 1.4 0 0 1-1.398 1.397 1.4 1.4 0 0 1-1.398-1.397 1.4 1.4 0 0 1 1.398-1.397 1.4 1.4 0 0 1 1.398 1.397m18.73 0a1.4 1.4 0 0 1-1.398 1.397 1.4 1.4 0 0 1-1.398-1.397 1.4 1.4 0 0 1 1.398-1.397 1.4 1.4 0 0 1 1.398 1.397m18.73 0a1.4 1.4 0 0 1-1.398 1.397 1.4 1.4 0 0 1-1.398-1.397 1.4 1.4 0 0 1 1.398-1.397 1.4 1.4 0 0 1 1.398 1.397m18.732 0a1.4 1.4 0 0 1-1.398 1.397 1.4 1.4 0 0 1-1.398-1.397 1.4 1.4 0 0 1 1.398-1.397 1.4 1.4 0 0 1 1.398 1.397m18.73 0a1.4 1.4 0 0 1-1.398 1.397 1.4 1.4 0 0 1-1.398-1.397 1.4 1.4 0 0 1 1.398-1.397 1.4 1.4 0 0 1 1.398 1.397M11.442 76.218c0 .772-.626 1.397-1.398 1.397a1.4 1.4 0 0 1-1.398-1.397 1.4 1.4 0 0 1 1.398-1.397 1.4 1.4 0 0 1 1.398 1.397m18.73 0c0 .772-.626 1.397-1.398 1.397a1.4 1.4 0 0 1-1.398-1.397 1.4 1.4 0 0 1 1.398-1.397 1.4 1.4 0 0 1 1.398 1.397m18.732 0a1.4 1.4 0 0 1-1.398 1.397c-.773 0-1.398-.625-1.398-1.397a1.4 1.4 0 0 1 1.398-1.397 1.4 1.4 0 0 1 1.398 1.397m18.73 0a1.4 1.4 0 0 1-1.398 1.397c-.773 0-1.398-.625-1.398-1.397a1.4 1.4 0 0 1 1.398-1.397 1.4 1.4 0 0 1 1.398 1.397m18.73 0a1.4 1.4 0 0 1-1.398 1.397c-.773 0-1.398-.625-1.398-1.397a1.4 1.4 0 0 1 1.398-1.397 1.4 1.4 0 0 1 1.398 1.397m18.73 0a1.4 1.4 0 0 1-1.398 1.397 1.4 1.4 0 0 1-1.398-1.397 1.4 1.4 0 0 1 1.398-1.397 1.4 1.4 0 0 1 1.398 1.397m18.73 0a1.4 1.4 0 0 1-1.398 1.397 1.4 1.4 0 0 1-1.398-1.397 1.4 1.4 0 0 1 1.398-1.397 1.4 1.4 0 0 1 1.398 1.397M2.797 92.045a1.4 1.4 0 0 1-1.398 1.397A1.4 1.4 0 0 1 0 92.045a1.4 1.4 0 0 1 1.398-1.397 1.4 1.4 0 0 1 1.398 1.397m18.73 0a1.4 1.4 0 0 1-1.398 1.397 1.4 1.4 0 0 1-1.398-1.397 1.4 1.4 0 0 1 1.398-1.397 1.4 1.4 0 0 1 1.398 1.397m18.73 0c0 .772-.626 1.397-1.398 1.397a1.4 1.4 0 0 1-1.398-1.397 1.4 1.4 0 0 1 1.398-1.397 1.4 1.4 0 0 1 1.398 1.397m18.73 0c0 .772-.626 1.397-1.398 1.397a1.4 1.4 0 0 1-1.398-1.397 1.4 1.4 0 0 1 1.398-1.397 1.4 1.4 0 0 1 1.398 1.397m18.73 0c0 .772-.626 1.397-1.398 1.397a1.4 1.4 0 0 1-1.398-1.397 1.4 1.4 0 0 1 1.398-1.397 1.4 1.4 0 0 1 1.398 1.397m18.732 0a1.4 1.4 0 0 1-1.398 1.397c-.773 0-1.398-.625-1.398-1.397a1.4 1.4 0 0 1 1.398-1.397 1.4 1.4 0 0 1 1.398 1.397m18.73 0a1.4 1.4 0 0 1-1.398 1.397c-.773 0-1.398-.625-1.398-1.397a1.4 1.4 0 0 1 1.398-1.397 1.4 1.4 0 0 1 1.398 1.397m-103.744 14.39a1.4 1.4 0 0 1-1.398 1.397 1.4 1.4 0 0 1-1.398-1.397 1.4 1.4 0 0 1 1.398-1.397 1.4 1.4 0 0 1 1.398 1.397m18.73 0a1.4 1.4 0 0 1-1.398 1.397 1.4 1.4 0 0 1-1.398-1.397 1.4 1.4 0 0 1 1.398-1.397 1.4 1.4 0 0 1 1.398 1.397m18.732 0a1.4 1.4 0 0 1-1.398 1.397 1.4 1.4 0 0 1-1.398-1.397 1.4 1.4 0 0 1 1.398-1.397 1.4 1.4 0 0 1 1.398 1.397m18.73 0a1.4 1.4 0 0 1-1.398 1.397 1.4 1.4 0 0 1-1.398-1.397 1.4 1.4 0 0 1 1.398-1.397 1.4 1.4 0 0 1 1.398 1.397m18.73 0a1.4 1.4 0 0 1-1.398 1.397 1.4 1.4 0 0 1-1.398-1.397 1.4 1.4 0 0 1 1.398-1.397 1.4 1.4 0 0 1 1.398 1.397m18.73 0a1.4 1.4 0 0 1-1.398 1.397 1.4 1.4 0 0 1-1.398-1.397 1.4 1.4 0 0 1 1.398-1.397 1.4 1.4 0 0 1 1.398 1.397m18.73 0a1.4 1.4 0 0 1-1.398 1.397 1.4 1.4 0 0 1-1.398-1.397 1.4 1.4 0 0 1 1.398-1.397 1.4 1.4 0 0 1 1.398 1.397"/></svg>