<svg xmlns="http://www.w3.org/2000/svg" xmlns:xlink="http://www.w3.org/1999/xlink" width="268" height="101" xmlns:v="https://vecta.io/nano"><defs><path id="A" d="M0 .778h25.148V16.64H0z"/></defs><g fill="none" fill-rule="evenodd"><g transform="translate(105.6)"><circle cx="28" cy="28" r="28" fill="#e5f9ff"/><g transform="translate(15.2 11.2)"><g transform="translate(0 16.555)"><mask id="B" fill="#fff"><use xlink:href="#A"/></mask><path fill="#ade8fb" d="M25.094 11.182c-.072-4.396-2.4-8.22-5.86-10.404-2.212 1.543-4.085 2.763-6.933 2.704-2.387-.05-4.726-.665-6.567-2.218a.5.5 0 0 1-.174-.289C2.15 3.266-.07 7.178.001 11.594l.123 3.51a1.56 1.56 0 0 0 1.588 1.537H23.6c.863-.015 1.552-.726 1.537-1.59l-.054-3.87z" mask="url(#B)"/></g><path fill="#3cd7fa" d="M21.33 8.932c.082 5.015-3.917 9.146-8.932 9.23S3.254 14.244 3.172 9.23 7.088.084 12.102.002a9.08 9.08 0 0 1 9.229 8.93"/></g></g><path d="M0 75.2h267.2v8H0zm36.8 19.2h194.4v5.6H36.8z" fill="#dce3ee"/></g></svg>