<svg xmlns="http://www.w3.org/2000/svg" xmlns:xlink="http://www.w3.org/1999/xlink" width="427" height="340" xmlns:v="https://vecta.io/nano"><defs><linearGradient id="A" x1="98.604%" x2="-17.985%" y1="34.878%" y2="44.883%"><stop offset="0%" stop-color="#afe8fa" stop-opacity=".188"/><stop offset="100%" stop-color="#afe8fa" stop-opacity="0"/></linearGradient><ellipse id="B" cx="60.72" cy="104.846" rx="21.199" ry="36.616"/><filter id="C" width="144.8%" height="125.9%" x="-31.8%" y="-13%"><feOffset dx="-4" in="SourceAlpha"/><feGaussianBlur stdDeviation="2.5"/><feColorMatrix values="0 0 0 0 0.192156863 0 0 0 0 0.443137255 0 0 0 0 0.737254902 0 0 0 0.1 0"/></filter><path id="D" d="M33.745 77.778v-1.232l8.565 4.948v1.223l-8.565-4.94M7.986 65.29a.83.83 0 0 1-.304-.313c-.075-.125-.116-.268-.12-.414v-4.976c-.014-.107.032-.213.12-.276.1-.057.204-.057.294 0L28.06 70.9a.92.92 0 0 1 .414.727V76.6c.003.105-.045.204-.13.267-.09.053-.203.053-.294 0L7.976 65.28M7.58 53.848v-.984l19.476 11.24v.984L7.572 53.848m1.84-2.3a3.43 3.43 0 0 1-1.564-2.713c0-.993.7-1.398 1.573-.92h0c.925.597 1.505 1.604 1.555 2.704 0 .993-.708 1.398-1.564.92h0m5.19 2.99a3.45 3.45 0 0 1-1.564-2.704c0-1.002.708-1.398 1.573-.92h0c.923.604 1.504 1.61 1.564 2.713 0 .993-.708 1.39-1.573.92h0m5.198 2.998a3.42 3.42 0 0 1-1.564-2.704c0-.993.7-1.398 1.573-.92h0c.92.606 1.497 1.613 1.555 2.713 0 .993-.708 1.39-1.573.92h0m5.19 2.998a3.41 3.41 0 0 1-1.555-2.704c0-.993.708-1.398 1.564-.92h0a3.45 3.45 0 0 1 1.564 2.713c0 .993-.708 1.39-1.573.92h0M7.562 40.954v-.975l46 26.542v.975l-46-26.542m5.85-2.16v-.478l.828.47v-.92l.432.24v.92l.828.478v.487l-.828-.478v.92l-.423-.248v-.92l-.828-.478m8.28 6.438v-3.348l2.033 1.177v3.348l-2.033-1.177m2.944 1.7v-3.33l2.042 1.177v3.348l-1.923-1.214m2.953 1.7v-3.348l2.033 1.177v3.348l-2.033-1.177m2.944 1.7v-3.31l2.042 1.177v3.33l-2.042-1.177m4.425 2.557v-3.348l2.042 1.177v3.348l-2.042-1.177m2.962 1.7v-3.338l2.024 1.168v3.348l-2.024-1.177m2.944 1.7v-3.338l2.042 1.177v3.338l-2.042-1.177m4.425 2.557v-3.338l2.042 1.177v3.338l-2.042-1.16m2.953 1.7v-3.338l2.033 1.177v3.338l-2.033-1.177m2.944 1.7v-3.338l2.042 1.177v3.357l-2.042-1.177M16.22 39.29v-.524h.57l.33.193v3.173l-.497-.285v-2.492l-.405-.046m-6.66-5.28h.092c.49.3.904.705 1.214 1.186h0c.18.272.33.562.45.865h0a3.9 3.9 0 0 1 .248.874v.1c.005.074.005.147 0 .22v.13a1.91 1.91 0 0 1-.101.635c-.043.134-.105.26-.184.377h0c-.2.267-.523.412-.856.386h-.57l-.092-.046-.092-.064h-.046c-.015-.004-.03-.004-.046 0h-.055c-.025-.01-.047-.026-.064-.046h0a4.6 4.6 0 0 1-1.444-2.152v-.23a3.52 3.52 0 0 1-.092-.754v-.258a1.7 1.7 0 0 1 .11-.451h0l.055-.138v-.13c.054-.063.112-.12.175-.175a.78.78 0 0 1 .258-.147h0l.202-.055a1.48 1.48 0 0 1 .92.202h0M7.802 14.87v-4.12l12.88 7.43v4.12l-12.88-7.43M49.11 45.304c-1.372-.853-2.503-2.044-3.284-3.458-.844-1.39-1.3-2.974-1.352-4.598a3.23 3.23 0 0 1 1.371-2.989c1.08-.495 2.343-.368 3.303.33a9.54 9.54 0 0 1 3.294 3.476 9.34 9.34 0 0 1 1.343 4.598c.122 1.177-.403 2.327-1.37 3.007a3.34 3.34 0 0 1-3.303-.349m10.12-11.67L2.4.855C1.28.212.368.727.368 2.014l-.184 63.55a4.46 4.46 0 0 0 2.024 3.504l56.82 32.796c1.122.644 2.042.13 2.042-1.16l.184-63.55a4.46 4.46 0 0 0-2.024-3.504"/><filter id="E" width="132.7%" height="119.7%" x="-8.2%" y="-13.8%"><feOffset dx="5" dy="-4" in="SourceAlpha"/><feGaussianBlur stdDeviation="2.5"/><feColorMatrix values="0 0 0 0 0.192156863 0 0 0 0 0.443137255 0 0 0 0 0.737254902 0 0 0 0.15 0"/></filter></defs><g fill="none" fill-rule="evenodd"><path fill="url(#A)" d="M217.996 118.547c78.052 34.755 150.567 79.207 39.123 131.185-59.278 22.753-147.892 20.176-192.717-34.798C-53.364 29.14 106.227 66.752 217.996 118.547z" transform="matrix(-.694658 -.71934 -.71934 .694658 407.898756 173.14275)"/><g fill-rule="nonzero" transform="translate(118.644 42.454)"><path fill="#e5f0f9" d="M61.5 173.48l-59.7-34.562a2.39 2.39 0 0 1 0-4.129l64.124-37c.474-.275.766-.78.766-1.33s-.292-1.054-.766-1.33l-31.5-17.916.46-.8 31.464 17.916c.763.435 1.234 1.246 1.234 2.124s-.47 1.69-1.234 2.124l-64.124 37a1.46 1.46 0 0 0 0 2.529L61.95 172.7l-.46.79z"/><g transform="rotate(270.16 60.72 104.846)"><use fill="#000" filter="url(#C)" xlink:href="#B"/><use fill="#fafbff" xlink:href="#B"/></g><g fill="#bfedef"><path d="M97.35 94.103v11.248c0 4.994-3.054 9.988-9.145 13.96v-11.248c6.08-3.973 9.126-8.967 9.145-13.96m-9.145 13.96v11.248c-.478.313-.975.625-1.5.92-3.95 2.228-8.215 3.844-12.65 4.792v-11.248c4.433-.944 8.696-2.56 12.64-4.792.524-.294 1.02-.607 1.5-.92m-14.14 5.71v11.248c-8.957 1.952-18.236 1.892-27.167-.175V113.6c8.93 2.067 18.2 2.127 27.167.175M46.9 113.6v11.248c-4.188-.95-8.216-2.497-11.96-4.598a34.43 34.43 0 0 1-2.015-1.251V107.75c.635.432 1.306.846 2.006 1.26a44.61 44.61 0 0 0 11.96 4.598"/><path d="M32.924 107.733v11.248c-5.88-3.982-8.814-8.912-8.795-13.84V93.89c0 4.93 2.926 9.86 8.804 13.84"/></g><ellipse cx="37.189" cy="21.549" fill="#fafbff" rx="21.199" ry="36.616" transform="matrix(.002793 -.999996 .999996 .002793 39.06823 131.122679)"/><path fill="#fff" d="M84.646 80.52c-13.303-7.68-34.803-7.68-48.015 0s-13.1 20.123.156 27.793 34.803 7.68 48.024 0S97.95 88.19 84.646 80.5"/><path fill="#47d7f8" d="M50.064 99.556l13.653-7.928 1.84 1.085-13.653 7.928-1.84-1.085m3.763 2.17l13.653-7.928 1.84 1.085-13.588 7.91-1.84-1.085m22.724-6.87L64.01 87.6a1.5 1.5 0 0 0-1.371 0l-19.9 11.56c-.377.22-.386.57 0 .79l12.558 7.256a1.52 1.52 0 0 0 1.38 0l8.28-4.8 2.916 1.683c.56.322 1.518.147 1.656-.303l1.426-4.874 5.612-3.256c.17-.06.286-.22.286-.4s-.115-.34-.286-.4"/><path d="M65.593 92.713l-1.877-1.085-13.652 7.928 1.877 1.085 13.652-7.928m3.763 2.17l-1.877-1.086-13.652 7.928 1.876 1.085 13.653-7.927" fill="#fff"/><path fill="#afe8fa" d="M78.05 90.22l-14.04-8.102c-.536-.266-1.166-.266-1.702 0L41.867 94c-.206.076-.343.272-.343.492s.137.416.343.492l2.374 1.37 19.154-11.128 12.632 7.146 2.015-1.177c.21-.07.35-.267.35-.487s-.14-.416-.35-.487"/><g fill="#bfedef"><path d="M304.627 188.822v5.85c0 1.84-1.104 3.614-3.303 5.05v-5.85c2.2-1.435 3.303-3.237 3.303-5.05"/><path d="M301.37 193.843v5.85l-.543.33v-5.85l.543-.33m-280.02.36v5.85l-.727-.45v-5.85l.727.45m-.727-.45v5.85c-2.116-1.444-3.174-3.22-3.174-5.003v-5.85c0 1.784 1.05 3.568 3.174 5.003"/><path d="M300.78 194.202l-.018 5.85-129.922 75.48.018-5.85zM152.137 269.68l-.018 5.85-130.787-75.48.02-5.85z"/></g><path fill="#fdfeff" d="M300.717 183.368c5.19 2.99 5.216 7.845.064 10.834L170.86 269.68c-5.152 2.998-13.542 2.998-18.722 0L21.35 194.202c-5.18-2.99-5.207-7.845-.055-10.834l129.93-75.48c5.143-2.998 13.524-2.998 18.713 0l130.777 75.48z"/><g fill="#bfedef"><path d="M170.86 269.68v5.85c-1.435.8-2.987 1.393-4.6 1.73v-5.85c1.613-.336 3.165-.92 4.6-1.73"/><path d="M166.287 271.4v5.85a22.42 22.42 0 0 1-9.826-.055v-5.85a22.42 22.42 0 0 0 9.826.055m-9.826-.055v5.85c-1.514-.35-2.97-.913-4.324-1.674v-5.85a16.02 16.02 0 0 0 4.324 1.674"/></g><path d="M71.876 198.956l-.883-.505-4.214 2.455.874.506 1.62-.938 5.658 3.256.985-.57-5.65-3.265 1.6-.938m8.484-3.837l-.984.57 2.576 2.53-.028.018-4.38-1.48-.966.552 2.493 2.584-.018.01-4.315-1.518-1.02.6 6.007 1.977 1.05-.616L78.3 197.8l.018-.01 4.38 1.435 1.003-.588-3.35-3.514m4.755-.037c-.92-.506-.994-1.278-.166-1.766a3.33 3.33 0 0 1 3.045.092c.874.515 1.003 1.278.175 1.766a3.32 3.32 0 0 1-3.054-.092m3.855-2.235a5.27 5.27 0 0 0-4.885 0c-1.398.8-1.316 2.033.064 2.823 1.526.805 3.35.805 4.876 0 1.38-.8 1.325-2.023-.055-2.823m8.362-5.316l-.883-.506-2.374 1.38-2.024-1.168 2.383-1.38-.883-.506-3.367 1.96 6.532 3.77.993-.58-2.75-1.6 2.374-1.38m4.102-.8c-.672-.395-.1-.92.442-1.214a6.9 6.9 0 0 1 .92-.414l.92.552a1.27 1.27 0 0 1-.672.993 1.6 1.6 0 0 1-1.601.083m4.398-.92l-2.86-1.646a3.58 3.58 0 0 0-3.846-.055c-.578.336-1.07.802-1.435 1.36l1.04.294c.24-.462.606-.846 1.058-1.104.66-.415 1.5-.415 2.162 0l.138.083c-.357.13-.7.3-1.03.478-1.012.6-1.702 1.416-.515 2.106.994.507 2.182.455 3.128-.138.57-.33.846-.68.782-1.13l.497.258.92-.515m5.465-3.66l-1.187-.13a1.35 1.35 0 0 1-.644.754 3.34 3.34 0 0 1-3.073-.074c-.874-.515-.92-1.306-.138-1.784.398-.202.833-.32 1.28-.35l-.285-.708a4.49 4.49 0 0 0-1.84.561c-1.4.8-1.352 2.05 0 2.842a5.15 5.15 0 0 0 4.876 0 1.84 1.84 0 0 0 1.003-1.15m4.7-2.4l-1.04-.276a.92.92 0 0 1-.386.386 1.29 1.29 0 0 1-1.306-.064 3.68 3.68 0 0 1-.386-.212l-2.052-1.186 1.288-.745-.828-.478-1.288.745-1.113-.635-.92.524 1.067.67-.616.35.828.478.616-.35 2.245 1.297a4.53 4.53 0 0 0 1.076.45 2.7 2.7 0 0 0 2.08-.285c.298-.15.547-.384.718-.67m.184-2.676c-.92-.506-1.003-1.278-.175-1.757.968-.472 2.107-.437 3.045.092.874.506 1.003 1.278.175 1.757-.97.467-2.106.433-3.045-.092m3.846-2.235a5.27 5.27 0 0 0-4.885 0c-1.4.8-1.316 2.033.064 2.823 1.526.805 3.35.805 4.876 0 1.4-.8 1.325-2.023-.055-2.823m2.3-4.12a3.01 3.01 0 0 0-.607.276.83.83 0 0 0-.431.513c-.065.224-.032.465.1.664l-.764-.405-.92.524 4.7 2.76.92-.552-3.174-1.84a.73.73 0 0 1-.066-.597.72.72 0 0 1 .406-.442 1.61 1.61 0 0 1 .543-.202l-.764-.67m-22.92 29.227l-1.785-2.2 3.78 1.03-2.015 1.168m6.192-1.02L96.55 196.6l-.846.487 3.984 5.25 1.095-.635-.865-1.058 2.66-1.545 1.84.497 1.15-.67m5.962-3.486l-4.73-2.76-.92.552 3.12 1.84a.92.92 0 0 1-.46 1.242 1.84 1.84 0 0 1-1.141.239 3.91 3.91 0 0 1-1.444-.579l-2.383-1.37-.92.552 2.456 1.426a5.52 5.52 0 0 0 2.199.782c.673.06 1.348-.092 1.932-.432a1.13 1.13 0 0 0 .662-1.38l.773.423.92-.533m4.637-2.88l-1.04-.276a1.05 1.05 0 0 1-.396.377 1.24 1.24 0 0 1-1.297-.064l-.386-.212-2.052-1.177 1.288-.745-.837-.487-1.28.745-1.113-.635-.92.524 1.067.67-.616.35.837.487.607-.36 2.245 1.297c.336.202.698.357 1.076.46.707.18 1.456.078 2.088-.285a1.97 1.97 0 0 0 .718-.671m6.136-3.412l-2.456-1.416c-.667-.42-1.417-.686-2.2-.782-.673-.068-1.35.08-1.932.423a1.13 1.13 0 0 0-.662 1.361l-3.008-1.73-.92.552 6.992 4.037.92-.552-3.128-1.84c-.193-.473.012-1.014.47-1.242a1.84 1.84 0 0 1 1.132-.239 4.05 4.05 0 0 1 1.454.59l2.374 1.36.92-.552" fill="#05006d"/><path fill="#fdf4d5" d="M144.5 234.005v-1.747l5.86-3.384v1.757l-5.85 3.375m7.986-4.598v-1.757l15.723-9.068v1.757l-15.723 9.068m-10.212 7.66c-.787.43-1.746.4-2.502-.083-.894-.362-1.437-1.277-1.325-2.235a3.68 3.68 0 0 1 .074-.395c.045-.155.103-.306.175-.45l.202-.368c.067-.12.162-.22.276-.294.083-.044.183-.044.267 0l.754.44c.147.083.147.377 0 .635l-.13.212-.248.44v.055a1.84 1.84 0 0 0 .672.671c.283.15.6.233.92.24h.064l.377-.644c.065-.118.16-.217.276-.285a.24.24 0 0 1 .267 0l.754.432c.156.092.147.377 0 .635l-.212.36c-.083.134-.18.258-.294.368a1.61 1.61 0 0 1-.313.267l-.083.055m26.772-23.69l-31.03 17.916c-.997.65-1.626 1.736-1.693 2.925v6.944c0 1.085.764 1.517 1.702.975l12.18-7.036v-.294c.006-.176.1-.338.248-.432l.856-.497c.138-.083.248 0 .248.147v.23l17.48-10.117c1-.648 1.63-1.735 1.693-2.925v-6.944c0-1.076-.764-1.517-1.702-.975"/><path d="M139.183 233.25c-.114.075-.2.176-.276.294l-.202.368c-.072.145-.13.295-.175.45a3.68 3.68 0 0 0-.074.395c-.112.958.43 1.873 1.325 2.235a2.46 2.46 0 0 0 2.502.083l.083-.055a1.61 1.61 0 0 0 .313-.267c.113-.1.212-.234.294-.368l.212-.36c.156-.258.166-.543 0-.635l-.754-.432a.24.24 0 0 0-.267 0c-.116.068-.2.167-.276.285l-.377.644h-.064a2.03 2.03 0 0 1-.92-.24 1.84 1.84 0 0 1-.672-.671v-.055l.248-.44.13-.212c.147-.258.147-.552 0-.635l-.754-.44c-.083-.044-.183-.044-.267 0m11.14-4.32l-5.86 3.384.01 1.757 5.85-3.385v-1.756m17.848-10.3l-15.723 9.068.01 1.757 15.723-9.068v-1.757" fill="#f9c61b"/><path fill="#d7e4f9" d="M135.696 215.602c-.223.15-.362.395-.377.662 0 .248.175.35.377.23.23-.147.375-.398.386-.67 0-.248-.175-.34-.386-.22m1.444-.828c-.228.145-.372.392-.386.662 0 .248.175.35.386.22a.82.82 0 0 0 .377-.662c0-.248-.166-.35-.377-.22m1.435-.828c-.228.145-.372.392-.386.662 0 .248.175.34.386.22.23-.15.372-.4.386-.67 0-.24-.175-.34-.386-.212m3.165 0v-1.71l10.874-6.28v1.757l-10.884 6.28m13.064-7.54v-1.757l5.897-3.403v1.747l-5.897 3.403m-19.688 13.253v-1.02c-.313.138-.653.083-.653-.258v-2.98a1.72 1.72 0 0 1 .736-1.177l3.864-2.235c.13-.098.307-.108.447-.025s.218.24.197.402v2.99a1.29 1.29 0 0 1-.644 1.002l-2.824 1.628-1.122 1.655m27.968-24.26L132.1 213.33c-1 .65-1.63 1.742-1.693 2.934v6.944c0 1.067.773 1.508 1.702.966l3.57-2.05v-.377c.014-.15.095-.285.22-.368l.865-.497c.043-.033.1-.037.15-.01s.076.077.072.13v.368l10.166-5.868v-.368a.56.56 0 0 1 .248-.432l.865-.497c.138-.074.258 0 .258.138v.368l9.982-5.757v-.395a.55.55 0 0 1 .258-.432l.865-.497c.138-.083.248 0 .248.138v.368l3.284-1.895c.997-.65 1.626-1.736 1.693-2.925v-6.953c0-1.076-.764-1.508-1.702-.92"/><path d="M152.615 205.936l-10.874 6.282v1.747l10.883-6.272-.01-1.757m8.088-4.662l-5.897 3.403v1.756l5.897-3.403v-1.756m-25.006 15.22c-.202.12-.377 0-.377-.23.015-.268.155-.513.377-.662.212-.12.386 0 .386.22a.83.83 0 0 1-.386.67m1.444-.837c-.212.13-.386 0-.386-.22.014-.27.158-.517.386-.662.212-.13.377 0 .377.22a.82.82 0 0 1-.377.662m1.435-.828c-.212.12-.386 0-.386-.22.014-.27.158-.517.386-.662.212-.13.377 0 .386.212a.85.85 0 0 1-.386.67m.478-2.76l-3.864 2.235a1.72 1.72 0 0 0-.736 1.177v2.98c0 .34.34.395.653.258v1.002l1.122-1.655 2.824-1.628a1.29 1.29 0 0 0 .644-1.002v-3c.02-.16-.056-.32-.197-.402s-.317-.072-.447.025" fill="#5484f1"/><path fill="#bbf9da" d="M148.126 187.644v-1.747l7.774-4.488v1.747l-7.774 4.488m8.878-5.123v-1.757l9.126-5.316v1.757l-9.2 5.288M143 192.37c-1.26.736-2.282.138-2.29-1.324.087-1.61.934-3.085 2.282-3.973 1.26-.727 2.282-.13 2.29 1.334a5.05 5.05 0 0 1-2.282 3.964m26.165-23.176l-31.03 17.906c-.997.65-1.626 1.736-1.693 2.925v6.953c0 1.076.764 1.508 1.702.92l3.404-1.968v-.497a.56.56 0 0 1 .248-.432l.865-.497c.138-.083.248 0 .248.147v.497l10.203-5.886v-.497c.003-.134.072-.258.184-.33l.865-.497c.1-.064.193 0 .193.1v.506l10.203-5.886v-.506a.55.55 0 0 1 .239-.432l.874-.497c.138-.083.248 0 .248.147v.515l3.257-1.84c1-.648 1.63-1.735 1.693-2.925v-6.953c0-1.067-.773-1.508-1.702-.966"/><path fill="#00e07b" d="M147.942 215.915l-.24.138v2.814c0 .395.285.56.626.36l2.65-1.527c.202-.12.368 0 .368.212v2.603l-.644.368h-.046l-.046.184.773 1.315.138-.13.764-2.207v-.055l-.1-.064-.644.368v-2.538c0-.395-.276-.552-.616-.36l-2.65 1.536c-.212.12-.377 0-.377-.22v-2.796"/><path fill="#f9c61b" d="M151.336 233.886l-.856.497c-.15.094-.242.256-.248.432v1.002c0 .156.12.212.248.13l.856-.487c.152-.093.248-.255.258-.432v-.993c0-.166-.1-.23-.248-.147"/><path fill="#5484f1" d="M136.7 220.88l-.865.497c-.126.083-.207.218-.22.368v1.012c0 .13.1.193.212.12l.874-.497c.122-.085.2-.22.212-.368V221c.004-.054-.024-.105-.072-.13s-.106-.02-.15.01m11.546-6.677l-.865.497a.56.56 0 0 0-.248.432v1.002c0 .166.12.22.258.138l.33-.193.24-.138.294-.166c.145-.093.238-.25.248-.423v-1.012c0-.156-.12-.212-.258-.138m11.353-6.567l-.865.497a.55.55 0 0 0-.258.432v1.002c0 .156.1.22.248.138l.865-.497c.145-.093.238-.25.248-.423v-1.012c0-.156-.1-.22-.248-.138"/><g fill="#00e07b"><path d="M142.68 194.55l-.865.497a.56.56 0 0 0-.248.432v1.002c0 .156.1.23.248.147l.874-.506c.142-.095.23-.252.24-.423v-1.002c0-.156-.1-.23-.248-.147m11.49-6.567l-.865.497c-.112.073-.18.197-.184.33v.993c0 .13.083.175.193.1l.865-.497c.1-.075.178-.198.184-.33v-1.002c0-.12-.083-.166-.193-.1m11.518-6.714l-.874.497a.55.55 0 0 0-.239.432v1.002c0 .156.1.23.248.147l.405-.23.442-.258c.142-.095.23-.252.24-.423v-1.002c0-.156-.1-.23-.248-.147"/><path d="M165.2 183.09h0l-.12.193v3.9a.82.82 0 0 1-.368.635l-16.56 9.574a1.39 1.39 0 0 0-.626 1.076v2.584l-.644.368-.046.046v.184l.773 1.315h.046l.138-.13.754-2.198v-.055l-.1-.064-.635.368v-2.538a.83.83 0 0 1 .368-.644l16.56-9.574a1.37 1.37 0 0 0 .616-1.067v-3.9l-.1-.064"/></g><path fill="#fff" d="M142.57 188.94l-.13.22.01 1.775.028.065.175-.065 1.076-1.508.028-.046-.028-.202-1.086-.258-.073.02"/><path d="M155.9 181.408l-7.774 4.488.01 1.748 7.773-4.488v-1.748m10.248-5.932l-9.163 5.3.01 1.756 9.164-5.288-.01-1.757m-23.506 15.46l-.175.064v-1.84l.13-.22h.074l1.086.258v.248l-1.076 1.508m.34-3.863c-1.348.888-2.195 2.362-2.282 3.973 0 1.462 1.03 2.06 2.3 1.324a5.05 5.05 0 0 0 2.282-3.964c0-1.462-1.03-2.06-2.3-1.334" fill="#00e07b"/><path fill="#6d99ce" d="M171.715 249.696l5.824-3.357c3.947-2.28 9.402-2.833 12.18-1.223s1.84 4.746-2.116 7.026l-5.833 3.366c-3.947 2.28-9.402 2.823-12.18 1.223s-1.822-4.755 2.125-7.036z" opacity=".15" style="mix-blend-mode:multiply"/><path fill="#fca7a7" d="M188.726 204.88c.12 1.04 1.352 5.518 1.086 7.045s-4.5 4.102-4.5 4.102l-.59-2.63 2.346-2.3-.635-4.35 2.282-1.876z"/><path fill="#d5ebf7" d="M185.45 199.876a1.84 1.84 0 0 1 2.355.708c.662 1.675 1.107 3.427 1.325 5.215-.508.685-1.33 1.063-2.18 1.002l-1.5-6.925z"/><path fill="#6d6d89" d="M186.04 247.424a10.41 10.41 0 0 0 .193 1.03c.1.45.13 1.04-.377 1.196-.5.207-1.057.078-1.408-.322-.328-.63-.73-1.22-1.196-1.757-.663-.475-1.172-1.133-1.463-1.895-.184-.727-.064-1.186.432-1.26a3.68 3.68 0 0 1 2.144.809c.608.693 1.168 1.428 1.674 2.198zm-5.778 2.115s0 .58.064 1.04a4.45 4.45 0 0 1 .055 1.545c-.147.34-.92.59-1.84.59a4.29 4.29 0 0 0-2.107.791 3.35 3.35 0 0 1-2.65.451c-.773-.248-1.62-.598-1.748-.92s.267-.533 2.153-1.39 3.257-1.453 3.993-2.446l2.08.34z"/><path fill="#b2bfdb" d="M186.5 237.436c-.156-1.33-.433-2.64-.828-3.918l.368-6.585c.138-3.68 1.408-6.842.405-9.74l-11.224 2.492.828 16.26c.085 1.367.254 2.728.506 4.074l1.343 9.5c.738.396 1.626.396 2.364 0l.22-10.2-.166-2.3.368-6.17.24-3.063s.313 2.253.515 4.258c.175 1.757.598 3.348 1.076 6.613l1.48 8.663c.61.42 1.405.447 2.042.074 0 0 .782-7.523.46-9.98z"/><path fill="#8fa4c9" d="M180.924 227.816l.515 4.258c.083.846.23 1.655.405 2.63l-.1-5.518.24-3.68c2.364-1.002 2.852-2.437 2.852-2.437-1.05.895-2.275 1.56-3.597 1.95l-.313 2.796z"/><path fill="#fca7a7" d="M184.862 199.93c-.856.046-1.5.267-1.6 0-.092-.44-.156-.886-.193-1.334l.184-.515c1.53-.94 2.292-2.753 1.892-4.505s-1.87-3.054-3.66-3.24a3.89 3.89 0 0 0-4.195 3.394c-.398 1.622-.373 3.32.074 4.93.35.92.653 1.37 1.095 1.517.426.036.853.036 1.28 0h0l.193 1.048c.074.414.055.635-.764 1.13s1.233 1.545 2.585 1.444a4.29 4.29 0 0 0 3.266-1.784c.432-.966.432-2.115-.156-2.088z"/><path fill="#ef8f90" d="M179.167 202.36l-.074.055 1.178.405 3.468-.533.8-2.07s0-.1-.083-.248c-.653.064-1.113.184-1.205 0a7.1 7.1 0 0 1-.175-1.159l-1.546.248c-.184.01-1.426-1.62-1.426-1.62a12.68 12.68 0 0 1-.304 1.747 2.56 2.56 0 0 1-1.527.92l.175.074c.426.036.853.036 1.28 0h0l.193 1.048c.074.414.055.635-.764 1.13z"/><path fill="#3a2e6b" d="M185.257 192.344c-.1-.506-.46-1.15-3.165-1.913s-4.6-1.03-5.097-.7-.616 2.888 1.84 4.102a1.51 1.51 0 0 1 .156.699v1.14c.056.36.354.63.718.653v-1.085a.8.8 0 0 1 1.435.064 1.84 1.84 0 0 1-.083 1.72c-.285.533-.764.58-.92.386-.026.84.263 1.66.8 2.3a2.52 2.52 0 0 0 2.208-.487 12.21 12.21 0 0 1 .819-1.416c.618-.764 1.063-1.65 1.306-2.603.212-.943.203-1.922-.028-2.86z"/><g fill="#d5ebf7"><path d="M183.6 200.06c.24.59-.368 1.315-1.97 1.84s-1.748-.147-1.748-.147a32.84 32.84 0 0 0-3.128 1.609c-.92.67-1.39 2.62-1.518 5.914-.147 3.808-.166 9.454 0 10.43a5.85 5.85 0 0 0 4.103 1.609c2.31-.193 6.182-2.235 7.13-3.808 0-3.338-.414-3.88.12-5.803 1.242-4.405 1.895-6.208 1.288-9.133-.497-2.4-1.187-2.76-2.144-2.685a19.14 19.14 0 0 0-2.134.175h0z"/><path d="M183.206 199.738a4.6 4.6 0 0 1-3.294 1.389c-.34-.064-.534.607-.736.92.797.453 1.755.527 2.613.202 1.84-.46 2.43-1.784 2.272-2.272 0 .028-.57-.616-.856-.24z"/></g><path fill="#fca7a7" d="M171.65 213.02c1.895.478 2.337-.717 2.585-1.7l1.37-5.904c.534-1.6 1.086-1.84 1.84-2.17s1.693.405 1.39 2.446c-.37 2.364-.95 4.69-1.73 6.953a6.17 6.17 0 0 1-1.555 2.704c-.975.79-2.447.754-4.674.202-1.302-.444-2.567-.99-3.78-1.637l-1.776-.81a6.34 6.34 0 0 1-2.374-1.839c-.488-.7-.552-1.03-.45-1.186s.34-.156.598.138a5.31 5.31 0 0 0 1.362 1.26l-.92-1.02a5.28 5.28 0 0 1-.718-1.168c-.166-.414.184-.92.45-.67s.396.59.92 1.168c.272.314.58.595.92.837a9.72 9.72 0 0 1-.81-1.297 2.08 2.08 0 0 1-.294-1.177c0-.212.313-.46.598-.055.278.552.617 1.07 1.012 1.545.432.45.8.708.8.59s-.258-.377-.414-.92 0-1.076.294-1.14.23 0 .46.44a17.01 17.01 0 0 1 .865 1.563 3.19 3.19 0 0 0 .773 1.343c.935.772 2.054 1.292 3.248 1.508h0z"/><path fill="#d5ebf7" d="M178.155 202.92c-1.27-.193-2.162.377-2.714 2.3l-.92 3.486a3.42 3.42 0 0 0 2.116 1.407c1.51.368 2.052-.36 2.052-.36l.68-3.366c.258-1.36.35-3.228-1.214-3.458z"/><g fill="#e9effa"><path d="M160.27 17.63v-2.492l9.2 5.297v2.492l-9.2-5.297m120.29 69.39v-2.474l8.814 5.086v2.474l-8.814-5.086M156.166 16.6a4.92 4.92 0 0 1-2.236-3.872c0-1.426 1.003-2.005 2.254-1.288 1.317.863 2.146 2.3 2.236 3.872 0 1.426-1.02 1.996-2.254 1.288m135.36 68.195l-137.65-79.49c-1.84-1.067-3.35-.202-3.358 1.922l-.276 96.75c.124 2.346 1.36 4.492 3.33 5.776l137.677 79.49c1.84 1.067 3.35.212 3.358-1.913l.267-96.742c-.12-2.35-1.36-4.5-3.33-5.785"/><path d="M186.627 21.86a3.56 3.56 0 0 1-1.619-2.759c0-1.04.727-1.453 1.628-.92a3.57 3.57 0 0 1 1.628 2.805c0 1.04-.736 1.453-1.638.92m3.12-4.304L160.83.9l-3.68 6.327 36.285 20.932-3.68-10.567"/></g><path fill="#c2d6f2" d="M186.637 18.182c-.92-.524-1.628-.1-1.628.92a3.56 3.56 0 0 0 1.619 2.759c.92.524 1.628.1 1.638-.92a3.57 3.57 0 0 0-1.628-2.805"/><path d="M156.185 11.44c-1.25-.717-2.254-.138-2.254 1.288a4.92 4.92 0 0 0 2.236 3.872c1.233.708 2.245.138 2.254-1.288-.1-1.572-.92-3.008-2.236-3.872m13.265 8.995l-9.172-5.297-.01 2.492 9.172 5.298.01-2.493m119.932 69.198l-8.814-5.086-.01 2.474 8.814 5.086.01-2.474" fill="#c8d6ed"/><g transform="translate(191.89 52.21)"><use fill="#000" filter="url(#E)" xlink:href="#D"/><use fill="#fff" xlink:href="#D"/><path fill="#a7dbd7" d="M53.663 66.512l-46-26.542-.01.975 46 26.542.01-.975"/><path d="M20.626 17.842l-12.87-7.43-.01 4.12 12.87 7.43.01-4.12M42.32 81.494l-8.575-4.948v1.232l8.566 4.94.01-1.223" fill="#b5c4e0"/><path fill="#efefef" d="M7.848 36.098a4.6 4.6 0 0 0 1.444 2.152 4.22 4.22 0 0 1-.92-.966L10.82 38.7a1.48 1.48 0 0 1-.405.055c.333.026.655-.12.856-.386l-3.35-1.93a3.7 3.7 0 0 1-.12-.34m3.81 1.27L9.56 36.18l-1.84-1.085a3.52 3.52 0 0 0 .092.754v-.13l3.8 2.19v.092a1.91 1.91 0 0 0 .101-.635M7.7 34.948v.175c0 .055 0-.12 0-.175m.1-.46a1.7 1.7 0 0 0-.11.451h.1l.166.24-.064-.258h.166l-.212-.12-.046-.23m.7.377l-.055.193-.166-.193.166.23-.064.184h.166l.166.23-.055-.258h.166l-.202-.12-.074-.267m.708.405l-.064.193-.212-.12.175.23-.064.193.166-.046.166.23-.064-.258h.166l-.202-.12-.064-.267m-1.297-.984v.064l.092.138-.055-.202m3.413 1.84l-1.674-.966v.59l1.895 1.085v.166a3.9 3.9 0 0 0-.248-.874M8.142 34.03c-.063.054-.12.112-.175.175h.046l.13-.12m.36.175l-.055.193-.212-.12.175.23-.074.193.166-.046.175.24-.064-.267h.166l-.202-.12-.074-.267m.718.414l-.074.184-.202-.12.166.23-.064.193h.166l.166.23-.064-.267h.175l-.212-.1-.055-.267m-.442-.68l-.175-.1-.202.055-.064.156.175-.046.166.24-.064-.248.166-.046m.442 0l-.074.193-.202-.12.166.24-.064.184.175-.046.156.23-.055-.248.166-.046-.212-.12-.055-.267m.432.083v.487l1.214.7c-.31-.482-.726-.887-1.214-1.186"/><path fill="#d50a2e" d="M11.546 36.788L9.65 35.702v.58l-.083-.046 2.052 1.186v-.13c.005-.074.005-.147 0-.22h0v-.267m-.745-1.554h0l-1.214-.7v.598l1.674.966c-.12-.303-.272-.592-.45-.865m-.018 3.54l-2.447-1.416a4.22 4.22 0 0 0 .92.966h0c.017.02.04.036.064.046h.055c.015-.004.03-.004.046 0h.046l.092.064.092.046h.57a1.48 1.48 0 0 0 .405-.055m.828-.44l-3.8-2.19v.36c0 .12.074.23.12.34l3.35 1.93c.08-.116.14-.243.184-.377v-.092"/><path fill="#0b55b0" d="M8.335 35.334l.064-.184-.12-.202.212.12.055-.193.074.267.202.12h-.166l.055.258-.166-.23H8.38m.708.414l.064-.193-.175-.23.212.12.064-.193.064.267.202.12h-.166l.064.258-.166-.23-.166.046M8.38 34.6l.074-.193-.175-.23.212.12.055-.193.074.267.202.12h-.166l.064.267-.175-.24-.166.046m.708.405l.064-.193-.166-.23.202.12.074-.184.055.267.212.1h-.175l.064.267-.166-.23H9.1m0-.653l.064-.184-.166-.24.202.12.074-.193.055.267.212.12-.166.046.055.248-.156-.23-.175.046m.607-.368h-.092a1.48 1.48 0 0 0-.92-.202h0l.175.1-.166.046.064.248-.166-.24-.175.046.064-.156a.78.78 0 0 0-.258.147l-.13.12h.055-.1v.064l.055.202-.092-.138-.055.138.046.23.212.12H8.05l.064.258-.166-.24h-.1v.258l1.84 1.085.083.046V34.03"/><path d="M14.775 38.066l-.432-.24v.947l-.828-.47v.478l.828.48v.956l.423.248V39.5l.828.47v-.47l-.82-.48v-.956m2.356.876l-.33-.193h-.57v.524l.405.046v2.492l.497.285V38.92m6.733 4.15l-2.033-1.177-.01 3.348 2.033 1.177.01-3.348m2.953 1.7l-2.043-1.177-.01 3.348 2.043 1.177.01-3.348m2.944 1.702l-2.033-1.177-.01 3.347 2.034 1.178.01-3.348m2.952 1.7l-2.042-1.177-.01 3.348 2.043 1.177.01-3.348m4.424 2.557l-2.042-1.177-.01 3.348 2.042 1.177.01-3.348m2.944 1.702l-2.024-1.17-.01 3.34 2.024 1.177.01-3.347m2.963 1.7l-2.043-1.177-.01 3.338 2.033 1.178.02-3.34m4.425 2.56l-2.043-1.177-.01 3.338 2.043 1.177.01-3.338m2.944 1.7l-2.033-1.177-.01 3.34 2.034 1.177.01-3.34m2.953 1.702l-2.042-1.177-.01 3.338 2.043 1.177.01-3.338" fill="#b5c4e0"/><path fill="#a7dbd7" d="M27.112 64.112L7.636 52.873l-.01.984 19.485 11.24v-.984"/><path fill="#5cebab" d="M9.53 47.97h0c-.874-.506-1.573-.1-1.573.92a3.43 3.43 0 0 0 1.564 2.713h0c.856.506 1.564.1 1.564-.92-.05-1.1-.63-2.107-1.555-2.704m5.19 2.98h0c-.865-.497-1.573-.1-1.573.92a3.45 3.45 0 0 0 1.564 2.704h0c.865.497 1.564.1 1.573-.92-.06-1.102-.64-2.11-1.564-2.713m5.198 3.007h0c-.874-.497-1.564-.092-1.573.92a3.42 3.42 0 0 0 1.564 2.704h0c.865.497 1.573.1 1.573-.92-.058-1.1-.635-2.107-1.555-2.713m5.18 3.007h0c-.856-.497-1.564-.092-1.564.92a3.41 3.41 0 0 0 1.555 2.704h0c.865.497 1.564.1 1.573-.92a3.45 3.45 0 0 0-1.564-2.713m-9.402 10.448v-1.177l2.364 1.36 2.364 1.37v1.214l-2.364-1.37-2.374-1.36m12.41 3.532L18.06 65.17 8.022 59.384c-.1-.057-.204-.057-.294 0-.087.063-.133.17-.12.276v4.976c.004.146.045.288.12.414a.83.83 0 0 0 .304.313L28.106 76.95c.09.053.203.053.294 0 .084-.063.132-.162.13-.267V71.7a.92.92 0 0 0-.414-.727"/><path fill="#fff" d="M20.442 68.912l-2.364-1.37-2.364-1.36-.01.607v.607l2.374 1.36 2.364 1.37v-1.214"/><path fill="#c8d6ed" d="M49.063 42.16a.22.22 0 0 0-.193 0c-.063.043-.1.117-.092.193a.67.67 0 0 0 .083.276.71.71 0 0 0 .202.202c.063.034.14.034.202 0a.22.22 0 0 0 .083-.184.56.56 0 0 0-.083-.285c-.05-.083-.12-.152-.202-.202m.607-2.925h-.074l-.36.212c-.12.055-.23.13-.36.202h0l-.147-.248-.138-.258-.074-.074h-.064l-.064.046h-.064v.147l.258.44.258.45.064.064h.064l.47-.276.47-.258v-.166l-.055-.1-.064-.1-.074-.083m-.175-2.134l-.414-.24-.405-.23h-.046v.055l.046.046.405.24.414.23v-.1m-.414-.57h-.064v.138l.064.064h.064v-.138l-.064-.064m-1.288 5.785l-.175-.184-.064-.24v-6.2l.064-.156h.175l1.224.7 1.224.708.175.184.064.23v6.17l-.064.156h-.175l-1.224-.708-1.224-.662m1.25-8c-.96-.7-2.223-.826-3.303-.33a3.23 3.23 0 0 0-1.371 2.989c.042 1.624.51 3.2 1.352 4.598.78 1.414 1.912 2.605 3.284 3.458a3.34 3.34 0 0 0 3.303.349c.984-.688 1.5-1.86 1.37-3.053a9.34 9.34 0 0 0-1.343-4.598 9.54 9.54 0 0 0-3.294-3.476"/><path fill="#fff" d="M49.063 42.802a.71.71 0 0 1-.202-.202.67.67 0 0 1-.083-.276c-.007-.076.03-.15.092-.193a.22.22 0 0 1 .193 0c.083.05.152.12.202.202a.56.56 0 0 1 .083.285.22.22 0 0 1-.083.184c-.063.034-.14.034-.202 0m-.202-3.136h0l.36-.202.36-.212h.1l.074.083.064.1.055.1v.166l-.47.258-.47.276h-.064l-.064-.064-.258-.45-.258-.44v-.147h.064l.064-.046h.064l.074.074.138.258.147.248m-.184-2.906l-.046-.046v-.055h.046l.405.23.414.24v.1l-.414-.23-.405-.24m.405 0L49 36.705v-.138h.064l.064.064v.138h-.064m1.224.24l-1.224-.708-1.224-.7h-.175l-.064.156v6.17l.064.24.175.184 2.447 1.416h.175l.064-.156v-6.17l-.064-.23-.175-.184"/></g><path fill="#6d99ce" d="M174.4 148.18l-5.824-3.357c-3.947-2.28-9.402-2.823-12.18-1.223s-1.84 4.755 2.125 7.026l5.814 3.366c3.956 2.28 9.402 2.823 12.18 1.223s1.785-4.755-2.116-7.036z" opacity=".15" style="mix-blend-mode:multiply"/><path fill="#fca7a7" d="M158.77 102.978c-.12 1.04-1.362 5.518-1.095 7.045s4.5 4.093 4.5 4.093l.58-2.62-2.383-2.262.635-4.35-2.236-1.904z"/><path fill="#abeff4" d="M162 97.956a1.84 1.84 0 0 0-2.346.708c-.626 1.03-1.27 4.598-1.334 5.17.508.685 1.33 1.063 2.18 1.002l1.5-6.88z"/><path fill="#6d6d89" d="M161.402 145.495c-.04.35-.102.697-.184 1.04-.1.45-.138 1.04.368 1.196.49.208 1.06.074 1.408-.33a9.3 9.3 0 0 1 1.205-1.747 4.14 4.14 0 0 0 1.454-1.895c.184-.736.074-1.186-.432-1.26-.78.04-1.53.323-2.144.81a20.04 20.04 0 0 0-1.674 2.189zm5.787 2.115s0 .59-.074 1.048a4.22 4.22 0 0 0-.046 1.545c.147.34.92.59 1.84.59a4.41 4.41 0 0 1 2.107.782c.776.52 1.735.686 2.64.46.773-.248 1.628-.598 1.757-.92s-.276-.533-2.153-1.39-3.266-1.453-3.993-2.446l-2.08.33z"/><path fill="#88a9d8" d="M160.95 135.516c.156-1.33.433-2.64.828-3.918l-.377-6.585c-.138-3.68-1.398-6.842-.405-9.75l11.233 2.502-.828 16.26a33.3 33.3 0 0 1-.506 4.065l-1.343 9.52c-.738.4-1.627.4-2.364 0 0 0-.304-8.167-.22-10.2.092-2.483.166-2.3.166-2.3l-.368-6.17-.248-3.072s-.313 2.253-.506 4.267c-.184 1.757-.607 3.338-1.076 6.613-.414 2.833-1.48 8.663-1.48 8.663-.614.417-1.413.442-2.052.064 0 0-.79-7.523-.45-9.98z"/><path fill="#5b7fb2" d="M166.517 125.887l-.506 4.267-.414 2.63.1-5.518-.24-3.68c-2.355-1.002-2.843-2.446-2.843-2.446a9.78 9.78 0 0 0 3.597 1.959l.304 2.787z"/><path fill="#fca7a7" d="M162.588 98.01c.856 0 1.5.267 1.6 0 .092-.44.156-.886.193-1.334l-.184-.515c-1.542-.934-2.313-2.75-1.912-4.51s1.883-3.06 3.678-3.235c2.17-.23 3.763 1.297 4.195 3.394.395 1.623.366 3.32-.083 4.93-.34.92-.644 1.37-1.086 1.517-.43.036-.86.036-1.288 0h0l-.193 1.058c-.083.414-.046.625.773 1.13s-1.242 1.545-2.585 1.444c-1.305-.07-2.508-.726-3.275-1.784-.46-.993-.423-2.124.166-2.097z"/><path fill="#ef8f90" d="M168.283 100.44l.064.055-1.168.405-3.468-.533-.8-2.07.074-.248c.653.064 1.122.184 1.214 0 .085-.382.143-.77.175-1.16l1.536.248c.322 0 1.435-1.62 1.435-1.62a11.39 11.39 0 0 0 .304 1.747 2.56 2.56 0 0 0 1.527.92l-.175.074c-.43.036-.86.036-1.288 0h0l-.193 1.058c-.083.414-.046.616.773 1.122z"/><path fill="#3f2925" d="M162.193 90.424c.1-.506.45-1.16 3.156-1.913s4.6-1.03 5.106-.7.616 2.888-1.84 4.102a1.39 1.39 0 0 0-.166.69c.023.38.023.76 0 1.14-.045.362-.344.638-.708.653V93.32a.79.79 0 0 0-1.426.064 1.84 1.84 0 0 0 .083 1.72c.285.533.764.58.92.386.026.84-.263 1.66-.8 2.3a2.55 2.55 0 0 1-2.217-.515c-.233-.494-.507-.968-.82-1.416-.616-.767-1.06-1.658-1.297-2.612a5.96 5.96 0 0 1 .018-2.823h0z"/><path fill="#bcf6f7" d="M163.83 98.14c-.24.59.36 1.315 1.97 1.84s1.748-.147 1.748-.147c1.07.475 2.112 1.012 3.12 1.61.966.67 1.398 2.62 1.527 5.914.147 3.808.156 9.454 0 10.43-1.108 1.052-2.585 1.627-4.112 1.6-2.3-.184-6.182-2.226-7.12-3.798 0-3.338.414-3.88-.13-5.803-1.233-4.405-1.84-6.208-1.288-9.133.497-2.42 1.196-2.713 2.144-2.695a20.67 20.67 0 0 1 2.144.184z"/><path fill="#abeff4" d="M164.235 97.81c.862.893 2.052 1.395 3.294 1.39.35-.055.543.616.736.92-.792.458-1.748.536-2.604.212-1.794-.46-2.43-1.784-2.282-2.28-.01.028.58-.598.856-.24z"/><path fill="#fca7a7" d="M175.818 111.07c-1.895.478-2.337-.717-2.585-1.7l-1.38-5.904c-.524-1.6-1.076-1.84-1.84-2.17s-1.702.405-1.398 2.446a40.76 40.76 0 0 0 1.739 6.953 6.18 6.18 0 0 0 1.555 2.704c.975.79 2.447.754 4.664.202a26.86 26.86 0 0 0 3.781-1.637l1.785-.81a6.44 6.44 0 0 0 2.374-1.839c.478-.7.543-1.03.45-1.196s-.35-.156-.607.147a5.15 5.15 0 0 1-1.362 1.251l.92-1.012a4.95 4.95 0 0 0 .718-1.168c.175-.414-.184-.92-.45-.68s-.396.59-.92 1.177a5.02 5.02 0 0 1-.874.837 9.72 9.72 0 0 0 .81-1.297 2.27 2.27 0 0 0 .294-1.177c0-.212-.322-.47-.598-.064-.276.558-.62 1.08-1.02 1.554-.432.45-.8.708-.8.58s.267-.368.414-.92 0-1.067-.285-1.13-.23 0-.47.44a16.02 16.02 0 0 0-.791 1.655 3.2 3.2 0 0 1-.782 1.343c-.97.753-2.116 1.24-3.33 1.416h0z"/><path fill="#abeff4" d="M169.295 101c1.26-.193 2.153.377 2.714 2.3l.92 3.486a3.46 3.46 0 0 1-2.116 1.407c-1.51.36-2.06-.36-2.06-.36l-.68-3.366c-.267-1.36-.34-3.228 1.224-3.458z"/><path fill="#fff" d="M277.937 189.584l-48.852-28.198a7.27 7.27 0 0 0-6.633 0l-20.24 11.763-.322.212a13.35 13.35 0 0 1-4.664 1.453c-.66.065-1.324-.027-1.94-.267l.506.303.708.386a10.83 10.83 0 0 0 5.281 1.453 4.28 4.28 0 0 0 .451.303l48.86 28.198a7.27 7.27 0 0 0 6.633 0l20.24-11.763c1.83-1.067 1.812-2.787-.028-3.844zm-32.825-11.69l11.04 6.383-1.97 1.14-11.04-6.383 1.97-1.14zM225.94 166.86l16 9.197-1.96 1.15-16-9.197 1.96-1.15zm10.36 14.347a3.55 3.55 0 0 1-3.192 0h0c-.4-.137-.652-.506-.652-.92s.26-.782.652-.92c1.003-.51 2.2-.51 3.192 0h0c.865.478.874 1.306 0 1.812v.028zm-4.83-2.76a3.47 3.47 0 0 1-3.183 0h0c-.4-.137-.652-.506-.652-.92s.26-.782.652-.92c1-.506 2.183-.506 3.183 0h0c.36.153.59.508.587.898s-.243.74-.605.886l.018.055zm-12.88-7.422a3.47 3.47 0 0 1 3.183 0h0c.4.137.652.506.652.92s-.26.782-.652.92c-1 .506-2.183.506-3.183 0h0c-.453-.085-.783-.48-.788-.94s.318-.86.77-.955l.018.055zm2.604 9.72l-9.586-5.518 1.97-1.14 9.586 5.518-1.97 1.14zm2.226-5.095c-.4-.137-.652-.506-.652-.92s.26-.782.652-.92c1-.506 2.183-.506 3.183 0h0c.4.137.652.506.652.92s-.26.782-.652.92a3.57 3.57 0 0 1-3.202 0h.018zm17.48 16.48l-16.974-9.795 1.97-1.14 16.974 9.795-1.97 1.14zm13.404.533l-17.333-10.06 1.84-1.094 17.342 10.006-1.85 1.15zm9.954-1.36l-7.636-4.405 1.97-1.14 7.636 4.405-1.97 1.14z"/><g fill="#c8d6ed"><path d="M241.938 176.065l-16-9.234-1.96 1.15 16 9.234 1.96-1.15m14.222 8.213l-11.05-6.383-1.97 1.14 11.05 6.382 1.97-1.14"/><path d="M266.272 190.1l-7.636-4.406-1.97 1.14 7.636 4.405 1.97-1.14m-43.092-10.57l-9.586-5.527-1.97 1.14 9.586 5.537 1.97-1.15m19.733 11.396l-16.974-9.794-1.97 1.14 16.974 9.795 1.97-1.14"/></g><path fill="#5cebab" d="M231.45 176.552h0c-1-.506-2.183-.506-3.183 0-.4.137-.652.506-.652.92s.26.782.652.92h0a3.47 3.47 0 0 0 3.183 0c.4-.128.67-.5.67-.92s-.27-.792-.67-.92m-4.812-2.787h0c-1-.506-2.183-.506-3.183 0-.4.137-.652.506-.652.92s.26.782.652.92h0a3.57 3.57 0 0 0 3.202 0c.4-.137.652-.506.652-.92s-.26-.782-.652-.92m-4.84-2.787h0a3.47 3.47 0 0 0-3.183 0c-.4.128-.67.5-.67.92s.27.792.67.92h0c1 .506 2.183.506 3.183 0 .4-.137.652-.506.652-.92s-.26-.782-.652-.92m14.462 8.35h0c-1.003-.51-2.2-.51-3.192 0-.4.137-.652.506-.652.92s.26.782.652.92h0a3.55 3.55 0 0 0 3.192 0c.92-.506.865-1.334 0-1.84"/><path fill="#c8d6ed" d="M256.235 191.516l-17.342-10.007-1.886 1.095L254.35 192.6l1.886-1.094"/><path fill="#63e9ac" d="M72.604 176.8a.36.36 0 0 1-.202-.322v-.92c0-.294.276-.47.8-.47h3.873a.78.78 0 0 1-.046-.193v-4.994c0-.377.24-.524.92-.515h1.51a1.25 1.25 0 0 1 .589.12c.128.07.21.203.212.35v6.603c0 .294-.285.46-.8.46H73.21a1.24 1.24 0 0 1-.58-.12m11.62-9.583a33.42 33.42 0 0 0-8.28-3.21c-12.153 3.22-15.428 8.967-15.428 8.967a21.37 21.37 0 0 0 5.86 4.994c9.88 5.702 21.758 2.014 21.758 2.014 4.112-6.125.423-10.245-3.947-12.765"/><g fill="#dae3f5"><path d="M32.3 116.257l-.01 3.614-3.137-1.81.01-3.606z"/><path d="M32.3 116.257l5.188-3.007-.01 3.605-5.19 3.016z"/></g><path fill="#f9fbff" d="M29.16 114.454l5.19-3.016 3.137 1.812-5.188 3.007z"/></g></g></svg>